<?xml version="1.0" encoding="UTF-8"?>
<svg xmlns="http://www.w3.org/2000/svg" viewBox="0 0 64 64" width="64" height="64">
  <rect width="64" height="64" rx="14" fill="#0f172a"/>
  <!-- EU-style circle of stars (simplified) -->
  <g transform="translate(32,32)">
    <circle cx="0" cy="-22" r="2" fill="#fbbf24"/>
    <circle cx="11" cy="-19" r="2" fill="#fbbf24"/>
    <circle cx="19" cy="-11" r="2" fill="#fbbf24"/>
    <circle cx="22" cy="0" r="2" fill="#fbbf24"/>
    <circle cx="19" cy="11" r="2" fill="#fbbf24"/>
    <circle cx="11" cy="19" r="2" fill="#fbbf24"/>
    <circle cx="0" cy="22" r="2" fill="#fbbf24"/>
    <circle cx="-11" cy="19" r="2" fill="#fbbf24"/>
    <circle cx="-19" cy="11" r="2" fill="#fbbf24"/>
    <circle cx="-22" cy="0" r="2" fill="#fbbf24"/>
    <circle cx="-19" cy="-11" r="2" fill="#fbbf24"/>
    <circle cx="-11" cy="-19" r="2" fill="#fbbf24"/>
  </g>
  <!-- Plane icon in center -->
  <g transform="translate(32,32) rotate(-30)">
    <path d="M0,-14 L3,-4 L14,2 L14,4 L3,1 L1,10 L4,12 L4,14 L-0,12 L-4,14 L-4,12 L-1,10 L-3,1 L-14,4 L-14,2 L-3,-4 Z" fill="#e2e8f0"/>
  </g>
</svg>
